<?xml version="1.0" standalone="no"?>
<!DOCTYPE svg PUBLIC "-//W3C//DTD SVG 20010904//EN"
 "http://www.w3.org/TR/2001/REC-SVG-20010904/DTD/svg10.dtd">
<svg version="1.0" xmlns="http://www.w3.org/2000/svg"
 width="919.000000pt" height="399.000000pt" viewBox="0 0 919.000000 399.000000"
 preserveAspectRatio="xMidYMid meet">

<g transform="translate(0.000000,399.000000) scale(0.100000,-0.100000)"
fill="#000000" stroke="none">
<path d="M1387 2732 l-847 -847 163 -163 162 -162 107 107 107 108 -51 53 -51
54 629 629 629 629 198 -198 197 -197 -182 -3 -183 -2 -632 -633 -633 -632
132 -132 133 -133 502 502 503 503 0 -353 0 -352 188 0 187 0 440 441 c242
242 507 504 588 581 l148 141 69 -68 c48 -48 71 -64 74 -54 11 30 147 672 143
676 -4 4 -646 -132 -676 -143 -10 -3 5 -25 52 -72 l67 -67 -450 -450 -450
-450 0 340 0 340 118 -118 117 -117 110 110 110 110 -435 435 -435 435 -848
-848z"/>
<path d="M6562 2490 c-72 -26 -111 -52 -165 -109 -57 -60 -85 -115 -103 -200
-16 -79 -18 -284 -3 -366 29 -160 128 -274 279 -325 59 -20 81 -21 285 -18
l221 3 76 38 c91 44 146 102 192 197 l31 65 0 215 0 215 -31 66 c-37 78 -87
136 -152 177 -84 54 -133 62 -366 62 -181 -1 -218 -3 -264 -20z m519 -188 c39
-20 62 -41 84 -77 30 -48 30 -49 33 -218 3 -140 0 -178 -13 -214 -20 -52 -89
-115 -143 -131 -56 -17 -376 -15 -425 2 -57 21 -103 61 -128 113 -22 44 -24
60 -24 208 0 173 8 213 53 267 14 17 49 41 77 54 47 22 62 24 241 24 191 0
192 0 245 -28z"/>
<path d="M4029 2471 l-29 -29 0 -379 c1 -405 3 -420 53 -486 13 -18 49 -46 78
-62 l54 -30 368 -3 367 -3 0 90 0 90 -349 3 c-327 3 -350 4 -370 22 -20 19
-21 27 -21 328 l0 308 370 0 370 0 0 90 0 90 -431 0 -431 0 -29 -29z"/>
<path d="M5280 2491 c-69 -21 -121 -65 -156 -131 -17 -32 -19 -65 -22 -355 -3
-278 -1 -325 13 -363 23 -59 59 -98 119 -130 l51 -27 381 -3 381 -3 32 26 31
27 0 249 0 250 -25 24 -24 25 -311 0 -310 0 0 -90 0 -90 245 0 245 0 0 -120 0
-120 -299 0 c-287 0 -299 1 -325 21 l-26 20 0 288 c0 232 3 291 14 307 14 18
32 19 415 22 l401 3 0 89 0 90 -402 -1 c-222 0 -414 -4 -428 -8z"/>
<path d="M7732 2481 c-67 -23 -119 -65 -157 -126 -28 -46 -30 -54 -30 -154 0
-97 2 -110 27 -152 33 -56 76 -94 138 -123 41 -19 68 -21 323 -26 l279 -5 29
-33 c23 -26 29 -41 29 -80 0 -28 -7 -57 -16 -71 -34 -48 -57 -51 -449 -51
l-365 0 0 -90 0 -90 373 0 c413 0 434 3 523 63 31 21 58 51 78 87 29 51 31 62
31 150 0 79 -4 102 -22 136 -35 66 -70 101 -131 131 l-57 28 -278 5 -279 5
-29 33 c-51 57 -37 157 26 187 28 13 85 15 359 15 l326 0 0 90 0 90 -337 0
c-301 -1 -344 -3 -391 -19z"/>
<path d="M3495 2100 l-110 -110 53 -52 52 -53 -627 -627 -628 -628 -325 325
-325 325 -110 -110 -110 -110 435 -435 435 -435 848 848 847 847 -163 163
-162 162 -110 -110z"/>
<path d="M4260 1990 l0 -90 290 0 290 0 0 90 0 90 -290 0 -290 0 0 -90z"/>
<path d="M4220 1095 l0 -185 25 0 c25 0 25 1 25 84 l0 83 45 6 c77 8 107 58
82 134 -15 47 -45 63 -119 63 l-58 0 0 -185z m120 125 c40 -40 12 -100 -47
-100 -21 0 -23 4 -23 60 0 57 1 60 25 60 14 0 34 -9 45 -20z"/>
<path d="M6970 1095 c0 -178 1 -185 20 -185 19 0 20 7 20 185 0 178 -1 185
-20 185 -19 0 -20 -7 -20 -185z"/>
<path d="M5510 1225 c0 -33 -4 -45 -15 -45 -8 0 -15 -9 -15 -19 0 -10 7 -21
15 -25 12 -4 15 -26 15 -105 0 -89 2 -101 19 -111 50 -26 88 9 41 38 -17 10
-20 23 -20 93 0 72 2 81 20 86 11 3 20 14 20 24 0 12 -7 19 -20 19 -17 0 -20
7 -20 45 0 38 -3 45 -20 45 -17 0 -20 -7 -20 -45z"/>
<path d="M7530 1245 c0 -20 5 -25 25 -25 20 0 25 5 25 25 0 20 -5 25 -25 25
-20 0 -25 -5 -25 -25z"/>
<path d="M4460 1045 l0 -135 25 0 c25 0 25 0 25 98 0 104 7 122 47 122 18 0
23 6 23 25 0 28 -21 33 -40 10 -7 -8 -16 -15 -21 -15 -5 0 -9 7 -9 15 0 9 -9
15 -25 15 l-25 0 0 -135z"/>
<path d="M4655 1155 c-23 -22 -25 -32 -25 -110 0 -78 2 -88 25 -110 13 -14 36
-25 50 -25 14 0 37 11 50 25 23 22 25 32 25 110 0 78 -2 88 -25 110 -13 14
-36 25 -50 25 -14 0 -37 -11 -50 -25z m70 -110 c0 -83 -1 -90 -20 -90 -18 0
-20 8 -23 79 -3 91 1 109 25 104 16 -3 18 -15 18 -93z"/>
<path d="M4840 1176 c0 -3 13 -61 30 -130 31 -131 31 -156 -1 -156 -12 0 -19
-7 -19 -20 0 -14 7 -20 23 -20 46 0 58 21 93 165 40 162 40 165 15 165 -22 0
-26 -8 -42 -102 -6 -38 -14 -68 -18 -68 -4 0 -14 38 -21 85 -12 79 -15 85 -37
85 -12 0 -23 -2 -23 -4z"/>
<path d="M5104 1171 c-28 -12 -44 -61 -43 -125 1 -70 10 -96 41 -119 38 -28
85 -16 104 29 19 46 18 54 -11 54 -18 0 -25 -5 -25 -19 0 -10 -7 -24 -15 -31
-23 -19 -45 5 -45 51 l0 39 55 0 c51 0 55 2 54 23 -4 79 -55 123 -115 98z m54
-43 c7 -7 12 -20 12 -30 0 -13 -8 -18 -30 -18 -22 0 -30 5 -30 18 0 17 18 42
30 42 3 0 11 -5 18 -12z"/>
<path d="M5306 1157 c-46 -46 -43 -191 5 -229 42 -35 101 -12 115 45 5 24 3
27 -20 27 -19 0 -26 -5 -26 -20 0 -29 -30 -38 -46 -15 -19 25 -18 135 0 160
12 16 16 17 30 6 9 -7 16 -22 16 -32 0 -14 7 -19 26 -19 24 0 26 2 20 33 -12
64 -77 87 -120 44z"/>
<path d="M5689 1161 c-19 -15 -24 -30 -27 -84 -8 -129 19 -177 94 -163 28 6
38 14 50 41 17 41 18 130 3 174 -18 50 -78 66 -120 32z m69 -33 c18 -18 16
-152 -3 -168 -8 -7 -22 -10 -30 -6 -12 4 -15 24 -15 89 0 46 3 87 7 90 10 11
28 8 41 -5z"/>
<path d="M5906 1159 c-45 -36 -35 -74 36 -124 51 -37 58 -59 25 -79 -15 -9
-22 -7 -37 12 -11 13 -24 20 -34 16 -14 -5 -14 -9 -1 -35 28 -53 114 -49 135
7 14 36 -3 70 -55 106 -33 23 -45 38 -43 53 4 28 32 30 56 4 21 -22 42 -19 42
6 0 19 -49 55 -75 55 -12 0 -34 -9 -49 -21z"/>
<path d="M6192 1168 c19 -50 60 -248 55 -261 -4 -10 -16 -17 -27 -17 -13 0
-20 -7 -20 -20 0 -14 7 -20 24 -20 47 0 64 28 96 165 17 72 33 138 36 148 4
13 0 17 -19 17 -23 0 -26 -6 -42 -90 -10 -50 -19 -89 -21 -87 -2 2 -11 43 -20
90 -15 82 -18 87 -41 87 -16 0 -23 -5 -21 -12z"/>
<path d="M6545 1155 c-41 -41 -33 -64 43 -124 31 -24 42 -40 40 -55 -4 -28
-32 -32 -58 -6 -15 15 -25 18 -37 11 -15 -8 -13 -13 14 -40 38 -38 75 -40 108
-6 38 38 32 62 -31 121 -39 36 -55 57 -51 68 9 23 42 20 59 -6 11 -17 18 -19
33 -11 18 10 17 13 -12 42 -38 38 -75 40 -108 6z"/>
<path d="M6766 1159 c-25 -19 -26 -25 -26 -114 0 -89 1 -95 26 -114 35 -28 69
-26 99 4 23 22 25 32 25 110 0 78 -2 88 -25 110 -30 30 -64 32 -99 4z m72
-112 c2 -74 0 -88 -14 -94 -27 -10 -44 24 -44 90 0 66 13 100 38 95 14 -3 17
-18 20 -91z"/>
<path d="M7090 1064 c0 -153 12 -174 80 -139 27 14 30 14 30 0 0 -9 9 -15 25
-15 l25 0 0 135 0 135 -25 0 c-24 0 -24 0 -27 -112 l-3 -113 -27 -3 -28 -3 0
115 0 116 -25 0 -25 0 0 -116z"/>
<path d="M7343 1156 c-27 -23 -28 -28 -28 -111 0 -83 1 -88 28 -111 48 -41
108 -22 123 39 5 24 3 27 -20 27 -15 0 -26 -6 -26 -14 0 -7 -7 -19 -15 -26
-29 -24 -45 5 -45 85 0 52 4 76 15 85 19 16 45 -3 45 -31 0 -14 7 -19 26 -19
24 0 26 2 20 33 -12 65 -73 86 -123 43z"/>
<path d="M7530 1045 l0 -135 25 0 25 0 0 135 0 135 -25 0 -25 0 0 -135z"/>
<path d="M7685 1155 c-23 -22 -25 -32 -25 -110 0 -78 2 -88 25 -110 13 -14 36
-25 50 -25 14 0 37 11 50 25 23 22 25 32 25 110 0 78 -2 88 -25 110 -13 14
-36 25 -50 25 -14 0 -37 -11 -50 -25z m70 -110 c0 -83 -1 -90 -20 -90 -18 0
-20 8 -23 79 -3 91 1 109 25 104 16 -3 18 -15 18 -93z"/>
<path d="M7890 1045 l0 -135 25 0 c24 0 24 0 27 113 3 108 4 112 26 115 22 3
22 2 22 -112 l0 -116 25 0 26 0 -3 126 c-3 109 -6 128 -21 138 -13 8 -24 7
-47 -6 -25 -14 -30 -15 -30 -3 0 9 -10 15 -25 15 l-25 0 0 -135z"/>
<path d="M8149 1161 c-22 -18 -24 -26 -24 -116 0 -90 2 -98 24 -116 30 -25 62
-24 95 2 17 14 26 30 26 50 0 41 -32 39 -47 -2 -8 -21 -17 -30 -30 -27 -14 2
-19 14 -21 51 l-3 47 50 0 51 0 0 40 c0 74 -68 114 -121 71z m69 -54 c3 -23 0
-27 -22 -27 -21 0 -26 5 -26 23 0 13 3 27 7 31 15 14 38 0 41 -27z"/>
<path d="M8355 1155 c-41 -41 -33 -64 43 -124 31 -24 42 -40 40 -55 -4 -28
-32 -32 -58 -6 -15 15 -25 18 -37 11 -15 -8 -13 -13 14 -40 38 -38 75 -40 108
-6 38 38 32 62 -31 121 -39 36 -55 57 -51 68 9 23 42 20 59 -6 11 -17 18 -19
33 -11 18 10 17 13 -12 42 -38 38 -75 40 -108 6z"/>
<path d="M5430 795 l0 -65 -25 16 c-21 13 -31 15 -50 6 -64 -29 -55 -242 12
-258 13 -4 30 0 40 7 13 11 17 11 20 2 3 -7 16 -13 29 -13 l24 0 0 185 0 185
-25 0 c-24 0 -25 -2 -25 -65z m-12 -84 c9 -5 12 -31 10 -92 -3 -74 -5 -84 -22
-87 -31 -6 -46 26 -46 98 0 79 19 106 58 81z"/>
<path d="M7000 825 c0 -20 5 -25 25 -25 20 0 25 5 25 25 0 20 -5 25 -25 25
-20 0 -25 -5 -25 -25z"/>
<path d="M5589 741 c-22 -18 -24 -26 -24 -116 0 -90 2 -98 24 -116 30 -25 62
-24 95 2 17 14 26 30 26 50 0 41 -32 39 -47 -2 -8 -21 -17 -30 -30 -27 -14 2
-19 14 -21 51 l-3 47 50 0 51 0 0 40 c0 74 -68 114 -121 71z m69 -54 c3 -23 0
-27 -22 -27 -21 0 -26 5 -26 23 0 13 3 27 7 31 15 14 38 0 41 -27z"/>
<path d="M5900 625 c0 -128 1 -135 20 -135 19 0 20 7 20 103 0 106 7 127 42
127 16 0 18 -11 18 -115 l0 -115 25 0 26 0 -3 126 c-3 106 -6 129 -20 137 -12
8 -24 7 -45 -3 -15 -8 -31 -16 -35 -18 -5 -2 -8 3 -8 12 0 9 -8 16 -20 16 -19
0 -20 -7 -20 -135z"/>
<path d="M6157 740 c-47 -37 -48 -180 -1 -227 43 -43 108 -20 120 45 6 30 4
32 -20 32 -21 0 -26 -5 -26 -24 0 -31 -30 -43 -47 -20 -7 10 -13 33 -13 51 l0
33 55 0 c51 0 55 2 55 24 0 88 -63 133 -123 86z m61 -32 c7 -7 12 -20 12 -30
0 -13 -8 -18 -30 -18 -22 0 -30 5 -30 18 0 17 18 42 30 42 3 0 11 -5 18 -12z"/>
<path d="M6375 737 c-31 -27 -43 -89 -22 -127 11 -21 11 -29 -3 -53 -13 -24
-13 -29 0 -37 12 -8 12 -11 -3 -28 -25 -28 -22 -61 9 -72 38 -15 101 -12 134
5 24 13 30 22 30 50 0 39 -20 55 -70 55 -37 0 -73 17 -65 31 4 5 17 9 31 9 14
0 34 4 44 10 23 12 43 70 35 103 -5 18 -2 28 10 35 9 5 15 17 14 27 -4 18 -5
18 -21 1 -16 -16 -20 -16 -40 -2 -31 22 -52 20 -83 -7z m76 -44 c14 -38 -2
-78 -32 -78 -17 0 -26 8 -33 27 -21 60 42 111 65 51z m26 -206 c3 -4 3 -13 0
-22 -9 -21 -95 -21 -103 0 -11 28 13 43 56 35 23 -4 43 -10 47 -13z"/>
<path d="M6589 741 c-22 -18 -24 -26 -24 -116 0 -90 2 -98 24 -116 30 -24 72
-24 102 0 22 18 24 26 24 116 0 90 -2 98 -24 116 -13 10 -36 19 -51 19 -15 0
-38 -9 -51 -19z m69 -33 c18 -18 16 -152 -3 -168 -29 -24 -45 5 -45 84 0 65
10 96 30 96 3 0 11 -5 18 -12z"/>
<path d="M6822 754 c-25 -11 -42 -63 -42 -129 0 -93 25 -135 79 -135 29 0 71
39 71 66 0 33 -33 32 -49 -2 -7 -16 -18 -24 -29 -22 -15 3 -17 16 -17 93 0 79
2 90 18 93 13 3 22 -6 30 -27 15 -41 47 -43 47 -3 0 16 -6 36 -13 45 -12 18
-72 31 -95 21z"/>
<path d="M7000 625 l0 -135 25 0 25 0 0 135 0 135 -25 0 -25 0 0 -135z"/>
<path d="M7155 735 c-23 -22 -25 -32 -25 -110 0 -78 2 -88 25 -110 13 -14 36
-25 50 -25 14 0 37 11 50 25 23 22 25 32 25 110 0 78 -2 88 -25 110 -13 14
-36 25 -50 25 -14 0 -37 -11 -50 -25z m70 -110 c0 -83 -1 -90 -20 -90 -18 0
-20 8 -23 79 -3 91 1 109 25 104 16 -3 18 -15 18 -93z"/>
<path d="M7390 753 c-24 -8 -40 -35 -40 -65 0 -22 11 -36 50 -65 35 -26 50
-44 50 -60 0 -33 -27 -40 -53 -15 -15 14 -27 18 -36 12 -12 -7 -12 -12 2 -34
32 -48 113 -44 131 6 14 41 -1 74 -49 109 -46 33 -58 65 -28 76 10 4 23 -2 35
-16 10 -14 24 -21 33 -17 21 8 19 23 -10 51 -23 24 -52 30 -85 18z"/>
</g>
</svg>
